<svg xmlns="https://www.w3.org/2000/svg" viewBox="0 0 468.63 216.96"><defs><style>.cls-1{fill:#ebebeb;}.cls-2{fill:#f0f0f0;}.cls-3{fill:#f5f5f5;}.cls-4{fill:#3c3c3c;}.cls-5{fill:#5bcad6;}.cls-6{fill:#fff;}</style></defs><g id="Background_Complete" data-name="Background Complete"><path class="cls-1" d="M225.67,161.78H43.59c-3,0-5.38-1-5.38-2.15V57.11c0-1.19,2.41-2.16,5.38-2.16H225.67c3,0,5.38,1,5.38,2.16V159.63C231.05,160.81,228.63,161.78,225.67,161.78ZM43.59,55.05c-2.84,0-5.15.92-5.15,2.06V159.63c0,1.13,2.31,2.06,5.15,2.06H225.67c2.83,0,5.14-.93,5.14-2.06V57.11c0-1.14-2.31-2.06-5.14-2.06Z" transform="translate(-10.25 -30.06)"/><path class="cls-1" d="M410.18,161.88H247c-2.66,0-4.82-1-4.82-2.16V57.11c0-1.19,2.16-2.16,4.82-2.16h163.2c2.66,0,4.82,1,4.82,2.16V159.72C415,160.91,412.84,161.88,410.18,161.88ZM247,55.05c-2.54,0-4.61.92-4.61,2.06V159.72c0,1.14,2.07,2.06,4.61,2.06h163.2c2.54,0,4.61-.92,4.61-2.06V57.11c0-1.14-2.07-2.06-4.61-2.06Z" transform="translate(-10.25 -30.06)"/><path class="cls-2" d="M425.51,102.75a13.59,13.59,0,0,0-3.09.37h0c-1.32-3-4.25-4.87-8.21-4.87a15.53,15.53,0,0,0-8.43,2.74h0c-1.68-5.64-6.71-9.41-13.74-9.41-10,0-20.44,7.64-24.23,17.4a12,12,0,0,0-2.81-.32c-.31,0-.63,0-.94,0-8.62.58-8,13.58.67,13.58h61.4a6.77,6.77,0,0,0,5.47-2.75,15.75,15.75,0,0,0,2.38-4.76C435.93,108.12,432.14,102.75,425.51,102.75Z" transform="translate(-10.25 -30.06)"/><path class="cls-2" d="M185.53,45.13c-1.35-8.88-8.42-15.07-18.78-15.07-8.48,0-17.21,4.15-23.72,10.54h0a10,10,0,0,0-6.85-2.45c-7.18,0-14.72,5.82-16.83,13a13,13,0,0,0-.54,3.26h0l-.15.1c-5.94,4-3,13.39,4.23,13.39h63.23a7.25,7.25,0,0,0,6.11-3.25,18.66,18.66,0,0,0,2.27-4.88C196.75,52.14,192.77,45.85,185.53,45.13Z" transform="translate(-10.25 -30.06)"/><path class="cls-3" d="M261.05,144.3c-1.84-12.21-11.57-20.72-25.81-20.72-11.66,0-23.67,5.71-32.61,14.49h0a13.67,13.67,0,0,0-9.42-3.36c-9.87,0-20.23,8-23.14,17.87a17.88,17.88,0,0,0-.73,4.48l0,0-.21.13c-8.18,5.57-4.12,18.41,5.77,18.41H258.2a15.74,15.74,0,0,0,15.14-11.06l0-.12C276.48,153.93,271,145.28,261.05,144.3Z" transform="translate(-10.25 -30.06)"/></g><g id="_4_1" data-name="4 1"><path class="cls-4" d="M129.74,128.92H79.54V106.26l50.2-59.67h24v61h12.45v21.38H153.76v18.54h-24Zm0-21.38V76.33l-26.52,31.21Z" transform="translate(-10.25 -30.06)"/><path class="cls-4" d="M366.91,46.59V147.46H339V81.36A84.88,84.88,0,0,1,326,89.68a102.47,102.47,0,0,1-15.87,6.09V73.18q14.07-4.55,21.85-10.9a44.41,44.41,0,0,0,12.18-15.69Z" transform="translate(-10.25 -30.06)"/></g><g id="Character"><circle class="cls-5" cx="240.86" cy="97.23" r="56.71" transform="translate(118.49 301.48) rotate(-86.41)"/><circle class="cls-6" cx="240.86" cy="97.23" r="45.8" transform="translate(58.51 261.73) rotate(-70.49)"/><path class="cls-4" d="M270.6,89.49c-3.76-5.08-11,0-13.16,5.34A14.26,14.26,0,0,0,256.28,99L253.9,82.67,252,67.21a5.14,5.14,0,1,0-10.21,1.25l-.48-3.85a5.14,5.14,0,1,0-10.21,1.26l.66,5.36a5.15,5.15,0,0,0-6.38-4.36h0a5.16,5.16,0,0,0-3.84,5.62l.82,6.69A5.13,5.13,0,0,0,216,74.82h0a5.15,5.15,0,0,0-3.84,5.61l1.64,13.37,1.18,9.59L216.51,116c1.1,9,4.61,14.08,9.83,16.37,8,3.51,22.64,3.55,29.22-1.79,5.76-4.67,9.47-15.92,10.36-22.89S272.13,91.54,270.6,89.49Z" transform="translate(-10.25 -30.06)"/><rect class="cls-5" x="234.94" y="42.47" width="11.85" height="109.53" transform="translate(100.7 -157.75) rotate(38.01)"/></g><g id="Error_Unauthorized" data-name="Error Unauthorized"><path class="cls-4" d="M10.25,239.57v-5.5l16.15-23.4h8.05v22.8h4.34v6.1H34.45v7.1H27.53v-7.1ZM28,218.17l-10.12,15.3H28Z" transform="translate(-10.25 -30.06)"/><path class="cls-4" d="M46.27,214.42q3.09-4.9,10.25-4.9t10.24,4.9q3.09,4.89,3.09,13.55t-3.09,13.65q-3.09,4.95-10.24,4.95t-10.25-4.95q-3.09-5-3.09-13.65T46.27,214.42Zm16.29,7.32a8.45,8.45,0,0,0-1.87-4.12,5.25,5.25,0,0,0-4.17-1.6,5.26,5.26,0,0,0-4.18,1.6,8.45,8.45,0,0,0-1.87,4.12A34.23,34.23,0,0,0,50,228a39,39,0,0,0,.44,6.37,8,8,0,0,0,1.88,4.15,5.38,5.38,0,0,0,4.2,1.58,5.37,5.37,0,0,0,4.19-1.58,8,8,0,0,0,1.88-4.15A39,39,0,0,0,63,228,34.23,34.23,0,0,0,62.56,221.74Z" transform="translate(-10.25 -30.06)"/><path class="cls-4" d="M74.24,216.67v-6.45h11.9v36.45H79v-30Z" transform="translate(-10.25 -30.06)"/><path class="cls-4" d="M112.3,211.77v21.6a7.45,7.45,0,0,0,1.83,5.42,8,8,0,0,0,10.32,0,7.45,7.45,0,0,0,1.83-5.42v-21.6h7v21.55a14.11,14.11,0,0,1-1.9,7.52,12.21,12.21,0,0,1-5.09,4.63,16,16,0,0,1-7.08,1.55,15.6,15.6,0,0,1-7-1.55,11.77,11.77,0,0,1-5-4.63,14.47,14.47,0,0,1-1.83-7.52V211.77Z" transform="translate(-10.25 -30.06)"/><path class="cls-4" d="M169.38,246.67h-6.92l-15.65-23.95v23.95H139.9V211.72h6.91l15.65,24v-24h6.92Z" transform="translate(-10.25 -30.06)"/><path class="cls-4" d="M197.32,240H183.59l-2.27,6.65h-7.25l12.39-34.95h8l12.39,34.95h-7.31Zm-1.88-5.6-5-14.6-5,14.6Z" transform="translate(-10.25 -30.06)"/><path class="cls-4" d="M218.35,211.77v21.6a7.45,7.45,0,0,0,1.83,5.42,6.84,6.84,0,0,0,5.13,1.88,6.92,6.92,0,0,0,5.19-1.88,7.49,7.49,0,0,0,1.82-5.42v-21.6h7v21.55a14,14,0,0,1-1.91,7.52,12.13,12.13,0,0,1-5.08,4.63,16,16,0,0,1-7.09,1.55,15.59,15.59,0,0,1-7-1.55,11.71,11.71,0,0,1-5-4.63,14.47,14.47,0,0,1-1.83-7.52V211.77Z" transform="translate(-10.25 -30.06)"/><path class="cls-4" d="M269.4,211.77v5.65h-9.18v29.25h-6.91V217.42h-9.19v-5.65Z" transform="translate(-10.25 -30.06)"/><path class="cls-4" d="M303,211.77v34.9h-6.91V231.82H281.35v14.85h-6.91v-34.9h6.91v14.35h14.76V211.77Z" transform="translate(-10.25 -30.06)"/><path class="cls-4" d="M317,244.72a17.09,17.09,0,0,1-6.42-6.38,19,19,0,0,1,0-18.4,17.07,17.07,0,0,1,6.42-6.37,18.35,18.35,0,0,1,17.79,0,16.87,16.87,0,0,1,6.37,6.37,19.18,19.18,0,0,1,0,18.4,16.87,16.87,0,0,1-6.39,6.38,18.31,18.31,0,0,1-17.77,0Zm14.36-5.38a9.77,9.77,0,0,0,3.71-4.07,13.65,13.65,0,0,0,1.33-6.15A13.47,13.47,0,0,0,335,223a9.58,9.58,0,0,0-3.71-4,10.49,10.49,0,0,0-5.48-1.4,10.61,10.61,0,0,0-5.5,1.4,9.5,9.5,0,0,0-3.73,4,13.34,13.34,0,0,0-1.33,6.13,13.52,13.52,0,0,0,1.33,6.15,9.69,9.69,0,0,0,3.73,4.07,10.53,10.53,0,0,0,5.5,1.43A10.41,10.41,0,0,0,331.31,239.34Z" transform="translate(-10.25 -30.06)"/><path class="cls-4" d="M366.37,246.67l-7.61-13.6H355.5v13.6h-6.91v-34.9h12.94a15,15,0,0,1,6.81,1.42,9.9,9.9,0,0,1,4.22,3.85,10.62,10.62,0,0,1,1.41,5.43,10.45,10.45,0,0,1-2,6.22,10.11,10.11,0,0,1-5.87,3.83l8.24,14.15ZM355.5,227.82h5.78a5.73,5.73,0,0,0,4.2-1.38,5.14,5.14,0,0,0,1.38-3.82,4.94,4.94,0,0,0-1.38-3.73,5.89,5.89,0,0,0-4.2-1.32H355.5Z" transform="translate(-10.25 -30.06)"/><path class="cls-4" d="M387.15,211.77v34.9h-6.91v-34.9Z" transform="translate(-10.25 -30.06)"/><path class="cls-4" d="M401,240.77h15.51v5.9H393v-5.4l15.4-23.6H393v-5.9h23.5v5.4Z" transform="translate(-10.25 -30.06)"/><path class="cls-4" d="M429.31,217.42v8.75h11.61v5.55H429.31V241H442.4v5.7h-20V211.72h20v5.7Z" transform="translate(-10.25 -30.06)"/><path class="cls-4" d="M470.27,213.92a15.28,15.28,0,0,1,6.37,6.12,18.53,18.53,0,0,1,2.24,9.23,18.19,18.19,0,0,1-2.24,9.17,15.44,15.44,0,0,1-6.37,6.08,20.44,20.44,0,0,1-9.56,2.15h-12v-34.9h12A20.32,20.32,0,0,1,470.27,213.92Zm-1.41,23.8q3-3,3-8.45t-3-8.53c-2-2.05-4.77-3.07-8.39-3.07h-4.89v23.05h4.89C464.09,240.72,466.88,239.72,468.86,237.72Z" transform="translate(-10.25 -30.06)"/></g></svg>