<svg xmlns="http://www.w3.org/2000/svg" viewBox="0 0 396.28 241.24"><defs><style>.cls-1{fill:#ebebeb;}.cls-2{fill:#f0f0f0;}.cls-3{fill:#f5f5f5;}.cls-4{fill:#3c3c3c;}.cls-5{fill:#db2e2e;}.cls-6{fill:#fff;}</style></defs><g id="Background_Complete" data-name="Background Complete"><path class="cls-1" d="M235.09,161.78H53c-3,0-5.38-1-5.38-2.15V57.11C47.63,55.92,50.05,55,53,55H235.09c3,0,5.38,1,5.38,2.16V159.63C240.47,160.81,238.06,161.78,235.09,161.78ZM53,55.05c-2.83,0-5.14.92-5.14,2.06V159.63c0,1.13,2.31,2.06,5.14,2.06H235.09c2.84,0,5.15-.93,5.15-2.06V57.11c0-1.14-2.31-2.06-5.15-2.06Z" transform="translate(-47.63 -30.06)"/><path class="cls-1" d="M419.6,161.88H256.41c-2.66,0-4.83-1-4.83-2.16V57.11c0-1.19,2.17-2.16,4.83-2.16H419.6c2.66,0,4.83,1,4.83,2.16V159.72C424.43,160.91,422.26,161.88,419.6,161.88ZM256.41,55.05c-2.54,0-4.61.92-4.61,2.06V159.72c0,1.14,2.07,2.06,4.61,2.06H419.6c2.55,0,4.61-.92,4.61-2.06V57.11c0-1.14-2.06-2.06-4.61-2.06Z" transform="translate(-47.63 -30.06)"/><path class="cls-2" d="M434.94,102.75a13.68,13.68,0,0,0-3.1.37h0c-1.32-3-4.25-4.87-8.2-4.87a15.53,15.53,0,0,0-8.44,2.74h0c-1.68-5.64-6.71-9.41-13.73-9.41-10,0-20.45,7.64-24.23,17.4a12,12,0,0,0-2.81-.32c-.32,0-.63,0-.94,0-8.62.58-8,13.58.66,13.58h61.4a6.75,6.75,0,0,0,5.47-2.75,15.55,15.55,0,0,0,2.39-4.76C445.36,108.12,441.57,102.75,434.94,102.75Z" transform="translate(-47.63 -30.06)"/><path class="cls-2" d="M195,45.13c-1.34-8.88-8.42-15.07-18.77-15.07-8.48,0-17.22,4.15-23.72,10.54h0a10,10,0,0,0-6.85-2.45c-7.17,0-14.71,5.82-16.83,13a13.42,13.42,0,0,0-.53,3.26h0l-.14.1c-6,4-3,13.39,4.23,13.39h63.23a7.23,7.23,0,0,0,6.1-3.25,19,19,0,0,0,2.28-4.88C206.18,52.14,202.2,45.85,195,45.13Z" transform="translate(-47.63 -30.06)"/><path class="cls-3" d="M270.48,144.3c-1.85-12.21-11.58-20.72-25.81-20.72-11.66,0-23.68,5.71-32.62,14.49h0a13.64,13.64,0,0,0-9.41-3.36c-9.87,0-20.23,8-23.15,17.87a18.34,18.34,0,0,0-.73,4.48l0,0-.2.13c-8.18,5.57-4.12,18.41,5.77,18.41h83.32a15.75,15.75,0,0,0,15.15-11.06l0-.12C285.91,153.93,280.44,145.28,270.48,144.3Z" transform="translate(-47.63 -30.06)"/></g><g id="_4_1" data-name="4 1"><path class="cls-4" d="M139.17,129H89V106.36l50.2-59.67h24v61h12.44V129H163.19v18.53h-24Zm0-21.38V76.44l-26.53,31.21Z" transform="translate(-47.63 -30.06)"/><path class="cls-4" d="M369.61,129h-50.2V106.36l50.2-59.67h24v61h12.45V129H393.62v18.53h-24Zm0-21.38V76.44l-26.53,31.21Z" transform="translate(-47.63 -30.06)"/></g><g id="Character"><circle class="cls-5" cx="250.29" cy="97.23" r="56.71" transform="translate(89.95 310.89) rotate(-86.41)"/><circle class="cls-6" cx="250.29" cy="97.23" r="45.8" transform="matrix(0.33, -0.94, 0.94, 0.33, 27.41, 270.61)"/><rect class="cls-5" x="244.37" y="62.93" width="11.84" height="68.62" transform="translate(448.77 -40.19) rotate(135.2)"/><rect class="cls-5" x="244.37" y="61.93" width="11.84" height="68.62" transform="translate(310.73 311.59) rotate(-134.8)"/><path class="cls-4" d="M189.14,219.71a16.72,16.72,0,0,1-6.36-6.35,19,19,0,0,1,0-18.33,16.71,16.71,0,0,1,6.36-6.32,18.28,18.28,0,0,1,17.68,0,16.52,16.52,0,0,1,6.34,6.32,19.26,19.26,0,0,1,0,18.33,16.53,16.53,0,0,1-6.34,6.35,18.35,18.35,0,0,1-17.68,0ZM204,215.46a10.82,10.82,0,0,0,4.17-4.5,15.91,15.91,0,0,0,0-13.53A10.75,10.75,0,0,0,204,193a12.68,12.68,0,0,0-12.15,0,10.87,10.87,0,0,0-4.17,4.45,16,16,0,0,0,0,13.53,11,11,0,0,0,4.17,4.5,12.54,12.54,0,0,0,12.15,0Z" transform="translate(-47.63 -30.06)"/><path class="cls-4" d="M225.85,220.31a12.78,12.78,0,0,1-4.89-5,15.29,15.29,0,0,1-1.77-7.48,15,15,0,0,1,1.82-7.45,12.76,12.76,0,0,1,5-5,15.12,15.12,0,0,1,14.12,0,12.76,12.76,0,0,1,5,5,15,15,0,0,1,1.82,7.45,14.62,14.62,0,0,1-1.87,7.45,13.14,13.14,0,0,1-5.11,5,14.65,14.65,0,0,1-7.14,1.77A13.86,13.86,0,0,1,225.85,220.31Zm11-4.23a8,8,0,0,0,3.08-3.15,10.23,10.23,0,0,0,1.19-5.1,10.38,10.38,0,0,0-1.14-5.07,7.77,7.77,0,0,0-3-3.13,8.15,8.15,0,0,0-4-1,8,8,0,0,0-4,1,7.43,7.43,0,0,0-2.94,3.13,10.86,10.86,0,0,0-1.09,5.07q0,4.46,2.25,6.88a7.36,7.36,0,0,0,5.65,2.42A8.32,8.32,0,0,0,236.89,216.08Z" transform="translate(-47.63 -30.06)"/><path class="cls-4" d="M262,194.93a11.9,11.9,0,0,1,5.58-1.3,12.25,12.25,0,0,1,6.49,1.78,12.4,12.4,0,0,1,4.62,5,15.62,15.62,0,0,1,1.68,7.35,16.06,16.06,0,0,1-1.68,7.43,12.69,12.69,0,0,1-4.62,5.1,12.11,12.11,0,0,1-6.49,1.82,11.68,11.68,0,0,1-5.53-1.27,12.42,12.42,0,0,1-3.95-3.18v17.1h-5.63V194.08h5.63v4A11.5,11.5,0,0,1,262,194.93Zm11.48,7.88a8,8,0,0,0-3.06-3.15,8.14,8.14,0,0,0-4.08-1.08,8,8,0,0,0-4,1.1,8.14,8.14,0,0,0-3.06,3.2,10.12,10.12,0,0,0-1.16,5,10.29,10.29,0,0,0,1.16,5,8.07,8.07,0,0,0,3.06,3.22,7.94,7.94,0,0,0,8.1,0,8.24,8.24,0,0,0,3.06-3.28,10.4,10.4,0,0,0,1.16-5A9.94,9.94,0,0,0,273.52,202.81Z" transform="translate(-47.63 -30.06)"/><path class="cls-4" d="M290.11,220.91a10.19,10.19,0,0,1-4-3.2,8.13,8.13,0,0,1-1.58-4.53h5.83a4,4,0,0,0,1.65,2.93,6,6,0,0,0,3.78,1.17,6.35,6.35,0,0,0,3.68-.92,2.81,2.81,0,0,0,1.31-2.38,2.45,2.45,0,0,0-1.46-2.3,27,27,0,0,0-4.62-1.65,41.28,41.28,0,0,1-5-1.65,8.6,8.6,0,0,1-3.33-2.45,6.47,6.47,0,0,1-1.41-4.35,6.89,6.89,0,0,1,1.28-4,8.56,8.56,0,0,1,3.68-2.88,13.59,13.59,0,0,1,5.5-1.05,11.22,11.22,0,0,1,7.48,2.38,8.53,8.53,0,0,1,3,6.47H300.3a4.09,4.09,0,0,0-1.48-2.95,5.51,5.51,0,0,0-3.6-1.1,5.86,5.86,0,0,0-3.41.85,2.64,2.64,0,0,0-1.18,2.25,2.43,2.43,0,0,0,.79,1.85,5.46,5.46,0,0,0,1.92,1.18c.76.28,1.88.64,3.36,1.07a37.43,37.43,0,0,1,4.86,1.63,9.07,9.07,0,0,1,3.28,2.42,6.48,6.48,0,0,1,1.44,4.25,7.15,7.15,0,0,1-1.29,4.2,8.41,8.41,0,0,1-3.63,2.9,13.33,13.33,0,0,1-5.5,1.05A13.58,13.58,0,0,1,290.11,220.91Z" transform="translate(-47.63 -30.06)"/><path class="cls-4" d="M314,220.93a3.77,3.77,0,0,1,0-5.2,3.45,3.45,0,0,1,2.56-1,3.4,3.4,0,0,1,2.52,1,3.77,3.77,0,0,1,0,5.2,3.4,3.4,0,0,1-2.52,1A3.45,3.45,0,0,1,314,220.93Zm5.38-34.05-.64,24.25h-4.69l-.64-24.25Z" transform="translate(-47.63 -30.06)"/><path class="cls-4" d="M192.83,254.13a4.78,4.78,0,0,1-2.06,2,7.53,7.53,0,0,1-3.62.77h-3.23v7.33H181V246.15h6.16a7.65,7.65,0,0,1,3.48.72,4.9,4.9,0,0,1,2.13,1.93,5.4,5.4,0,0,1,.71,2.73A5.47,5.47,0,0,1,192.83,254.13Zm-3.19-.42a2.85,2.85,0,0,0,.83-2.18q0-3-3.32-3h-3.23v5.9h3.23A3.52,3.52,0,0,0,189.64,253.71Z" transform="translate(-47.63 -30.06)"/><path class="cls-4" d="M196.18,253.17a6.55,6.55,0,0,1,2.41-2.59,6.45,6.45,0,0,1,3.38-.92,6,6,0,0,1,4.9,2.32V249.9h2.95v14.32h-2.95v-2.13a5.78,5.78,0,0,1-2,1.69,6.46,6.46,0,0,1-6.26-.27,6.73,6.73,0,0,1-2.4-2.66,8.23,8.23,0,0,1-.89-3.86A8,8,0,0,1,196.18,253.17Zm10.09,1.3a4.29,4.29,0,0,0-1.58-1.66,4.1,4.1,0,0,0-2.11-.57,4.17,4.17,0,0,0-2.1.55,4.23,4.23,0,0,0-1.58,1.64,5.21,5.21,0,0,0-.6,2.56,5.4,5.4,0,0,0,.6,2.6,4.25,4.25,0,0,0,1.59,1.71,4,4,0,0,0,2.09.58,4.1,4.1,0,0,0,2.11-.57,4.28,4.28,0,0,0,1.58-1.68,5.85,5.85,0,0,0,0-5.16Z" transform="translate(-47.63 -30.06)"/><path class="cls-4" d="M222.29,250.32a5.78,5.78,0,0,1,2,1.66V249.9h2.95v14.56a7.37,7.37,0,0,1-.82,3.52,6,6,0,0,1-2.38,2.43,7.35,7.35,0,0,1-3.71.88,8,8,0,0,1-4.77-1.36,5,5,0,0,1-2.16-3.71h2.9a3.16,3.16,0,0,0,1.43,1.81,4.74,4.74,0,0,0,2.6.69,3.88,3.88,0,0,0,2.87-1.09,4.34,4.34,0,0,0,1.09-3.17v-2.4a6.06,6.06,0,0,1-4.91,2.4,6.28,6.28,0,0,1-3.37-.95,6.71,6.71,0,0,1-2.42-2.66,8.22,8.22,0,0,1-.88-3.86,8,8,0,0,1,.88-3.82,6.58,6.58,0,0,1,2.42-2.59,6.44,6.44,0,0,1,3.37-.92A6.25,6.25,0,0,1,222.29,250.32Zm1.38,4.15a4.15,4.15,0,0,0-1.58-1.66,4.09,4.09,0,0,0-2.1-.57,4.08,4.08,0,0,0-3.68,2.19,5.1,5.1,0,0,0-.61,2.56,5.29,5.29,0,0,0,.61,2.6,4.25,4.25,0,0,0,1.59,1.71,4,4,0,0,0,2.09.58,4.09,4.09,0,0,0,2.1-.57,4.14,4.14,0,0,0,1.58-1.68,5.76,5.76,0,0,0,0-5.16Z" transform="translate(-47.63 -30.06)"/><path class="cls-4" d="M243.94,258.16H233.13a4,4,0,0,0,1.26,2.76,4,4,0,0,0,2.77,1,3.42,3.42,0,0,0,3.34-2h3.16a6.43,6.43,0,0,1-2.32,3.23,6.73,6.73,0,0,1-4.18,1.27,7.11,7.11,0,0,1-3.63-.93,6.42,6.42,0,0,1-2.51-2.6,8,8,0,0,1-.92-3.88,8.21,8.21,0,0,1,.89-3.89,6.28,6.28,0,0,1,2.49-2.59,7.3,7.3,0,0,1,3.68-.91,7.11,7.11,0,0,1,3.57.89,6.07,6.07,0,0,1,2.44,2.48,7.55,7.55,0,0,1,.87,3.68A9.09,9.09,0,0,1,243.94,258.16ZM241,255.77a3.36,3.36,0,0,0-1.16-2.62,4.07,4.07,0,0,0-2.79-1,3.75,3.75,0,0,0-2.6,1,4.1,4.1,0,0,0-1.28,2.64Z" transform="translate(-47.63 -30.06)"/><path class="cls-4" d="M268.25,264.22h-2.92l-8.81-13.49v13.49h-2.93V246.13h2.93l8.81,13.46V246.13h2.92Z" transform="translate(-47.63 -30.06)"/><path class="cls-4" d="M274.62,263.53a6.55,6.55,0,0,1-2.54-2.6,7.87,7.87,0,0,1-.92-3.88,7.72,7.72,0,0,1,.95-3.88,6.54,6.54,0,0,1,2.59-2.6,7.86,7.86,0,0,1,7.34,0,6.54,6.54,0,0,1,2.59,2.6,7.72,7.72,0,0,1,.95,3.88,7.62,7.62,0,0,1-1,3.87,6.74,6.74,0,0,1-2.66,2.61,7.54,7.54,0,0,1-3.71.93A7.15,7.15,0,0,1,274.62,263.53Zm5.74-2.19a4.14,4.14,0,0,0,1.6-1.64,5.33,5.33,0,0,0,.62-2.65,5.48,5.48,0,0,0-.59-2.64,4,4,0,0,0-1.57-1.63,4.27,4.27,0,0,0-2.1-.54,4.17,4.17,0,0,0-2.09.54,3.84,3.84,0,0,0-1.53,1.63,5.6,5.6,0,0,0-.57,2.64,5.05,5.05,0,0,0,1.17,3.57,3.84,3.84,0,0,0,2.94,1.26A4.37,4.37,0,0,0,280.36,261.34Z" transform="translate(-47.63 -30.06)"/><path class="cls-4" d="M291.9,252.31v7.93a1.52,1.52,0,0,0,.37,1.16,1.85,1.85,0,0,0,1.27.35h1.8v2.47H293a4.43,4.43,0,0,1-3-.93,3.91,3.91,0,0,1-1.05-3.05v-7.93h-1.67V249.9H289v-3.57h2.95v3.57h3.44v2.41Z" transform="translate(-47.63 -30.06)"/><path class="cls-4" d="M315.21,246.15v2.42h-7.57v5.33h5.9v2.42h-5.9v7.9h-2.93V246.15Z" transform="translate(-47.63 -30.06)"/><path class="cls-4" d="M320.45,263.53a6.49,6.49,0,0,1-2.54-2.6,8.48,8.48,0,0,1,0-7.76,6.61,6.61,0,0,1,2.59-2.6,7.88,7.88,0,0,1,7.35,0,6.61,6.61,0,0,1,2.59,2.6,7.83,7.83,0,0,1,1,3.88,7.62,7.62,0,0,1-1,3.87,6.72,6.72,0,0,1-2.65,2.61,7.54,7.54,0,0,1-3.71.93A7.12,7.12,0,0,1,320.45,263.53Zm5.73-2.19a4.17,4.17,0,0,0,1.61-1.64,6,6,0,0,0,0-5.29,4,4,0,0,0-1.56-1.63,4.28,4.28,0,0,0-2.11-.54,4.2,4.2,0,0,0-2.09.54,4,4,0,0,0-1.53,1.63,5.72,5.72,0,0,0-.56,2.64,5.05,5.05,0,0,0,1.17,3.57,3.84,3.84,0,0,0,2.94,1.26A4.3,4.3,0,0,0,326.18,261.34Z" transform="translate(-47.63 -30.06)"/><path class="cls-4" d="M347.12,249.9v14.32h-2.93v-1.69a4.7,4.7,0,0,1-1.81,1.39,5.61,5.61,0,0,1-2.37.51,6.25,6.25,0,0,1-3-.7,5,5,0,0,1-2.08-2.08,6.77,6.77,0,0,1-.76-3.33V249.9h2.9v8a4.22,4.22,0,0,0,.95,2.95,3.8,3.8,0,0,0,5.2,0,4.17,4.17,0,0,0,1-2.95v-8Z" transform="translate(-47.63 -30.06)"/><path class="cls-4" d="M361.1,250.36a5.06,5.06,0,0,1,2.07,2.08,7,7,0,0,1,.74,3.33v8.45H361v-8a4.22,4.22,0,0,0-.95-2.95,3.37,3.37,0,0,0-2.59-1,3.41,3.41,0,0,0-2.61,1,4.17,4.17,0,0,0-1,2.95v8H351V249.9h2.93v1.63a4.85,4.85,0,0,1,1.83-1.37,5.84,5.84,0,0,1,2.38-.5A6.37,6.37,0,0,1,361.1,250.36Z" transform="translate(-47.63 -30.06)"/><path class="cls-4" d="M367.54,253.17a6.58,6.58,0,0,1,2.42-2.59,6.47,6.47,0,0,1,3.4-.92,6.68,6.68,0,0,1,2.73.61,5.61,5.61,0,0,1,2.15,1.63V245h2.95v19.24h-2.95v-2.16a5.51,5.51,0,0,1-2,1.72,6.14,6.14,0,0,1-2.92.68,6.26,6.26,0,0,1-3.37-.95,6.71,6.71,0,0,1-2.42-2.66,8.22,8.22,0,0,1-.88-3.86A8,8,0,0,1,367.54,253.17Zm10.09,1.3a4.22,4.22,0,0,0-1.58-1.66,4.09,4.09,0,0,0-2.1-.57,4.21,4.21,0,0,0-2.11.55,4.3,4.3,0,0,0-1.58,1.64,5.21,5.21,0,0,0-.6,2.56,5.4,5.4,0,0,0,.6,2.6,4.34,4.34,0,0,0,1.6,1.71,4,4,0,0,0,2.09.58,4.09,4.09,0,0,0,2.1-.57,4.21,4.21,0,0,0,1.58-1.68,5.76,5.76,0,0,0,0-5.16Z" transform="translate(-47.63 -30.06)"/><path class="cls-4" d="M120.68,262.2v-2.41l9.41-13.49H134v13.13h2.61v2.77H134v4.26h-3.13V262.2ZM131,249.54l-6.61,9.89H131Z" transform="translate(-47.63 -30.06)"/><path class="cls-4" d="M140.83,248.41q1.63-2.73,5.64-2.73t5.64,2.73a14.74,14.74,0,0,1,1.64,7.57,15.06,15.06,0,0,1-1.64,7.66q-1.63,2.76-5.64,2.76t-5.64-2.76a15,15,0,0,1-1.64-7.66A14.64,14.64,0,0,1,140.83,248.41Zm9.49,3.74a5.21,5.21,0,0,0-1.19-2.56,4,4,0,0,0-5.32,0,5,5,0,0,0-1.19,2.56,20.72,20.72,0,0,0-.3,3.83,24.07,24.07,0,0,0,.28,4,5,5,0,0,0,1.19,2.58,4.14,4.14,0,0,0,5.35,0,5,5,0,0,0,1.19-2.58,23,23,0,0,0,.28-4A21.73,21.73,0,0,0,150.32,252.15Z" transform="translate(-47.63 -30.06)"/><path class="cls-4" d="M156.74,262.2v-2.41l9.41-13.49H170v13.13h2.6v2.77H170v4.26h-3.14V262.2ZM167,249.54l-6.61,9.89H167Z" transform="translate(-47.63 -30.06)"/></g></svg>