<svg  xmlns="http://www.w3.org/2000/svg" viewBox="0 0 491.49 357.65"><defs><style>.cls-1{fill:#5bcad6;}</style></defs><g id="Layer_2" data-name="Layer 2"><g id="Layer_1-2" data-name="Layer 1"><circle class="cls-1" cx="329.75" cy="350.65" r="7"/><path class="cls-1" d="M399.75,290a94.79,94.79,0,0,1-11.74-.58s-5,26.09-31,37.09c-1.5,1.5-5.81-17.82-54.3-24.19-12.4-1.63-27.68-2.41-46.55-1.78q-8.56.29-18.15,1c-16.88,1.41-30.22,1.42-40.71.44-13.08-1.22-31.93-4.36-35.68-19.48-2.79-11.23,5.84-23.09,14.53-29.36,1.49-1.08,17.45-8.63,17.86-6.6-.74-3.69-1.52-7.06-2.38-10.2a95.75,95.75,0,0,0-11.3-25.84c-5.34-8.8-12.07-16.86-17.44-25.57-1-1.56-1.9-3.15-2.76-4.76A65.92,65.92,0,0,1,155,168.82a45.29,45.29,0,0,1-1.79-14.1c.34-31.72,15.65-49.07,37.91-60.38s50.53-9.53,71.37,4.22c19.34,12.76,32,36,29.79,59.09-2.27,24-20.82,42.91-32.23,62.85-5.48,9.36-5,10-12,28,23.55-7.22,47.83-15.17,64.56-34.3,15.14-17.31,23.93-39.69,26.81-63.38a80.12,80.12,0,0,0,.29-16.09c-.34-4.17-.84-6.57-1.13-8.81-1.25-7.62-5.11-17.37-10.47-27.08-.58-1,11.9-4.64,13.07-4.79a27,27,0,0,1,13.92,2c9.7,4,17.41,12.25,28,14.08,14.36,2.47,24.73-9.2,27.45-22.3,5.22-25.24-18.43-38.1-40.52-35-14.66,2-28.95,8.17-41,16.66-4.65,3.28-9,6.91-13.6,10.29a102.29,102.29,0,0,0-7.23-8.28,119,119,0,0,0-192.61,31.85c-.06.13-.12.26-.19.39a97.32,97.32,0,0,0-1.65,79.58c.48,1.15,1,2.3,1.53,3.43a119.47,119.47,0,0,0,46.17,51.16l.08,0A76.45,76.45,0,0,0,104,312a75.67,75.67,0,0,0,.78,10.92c-20.59-7.82-36.88-23.27-44.71-42.51-34-13-58.82-45.5-60-83.93A93,93,0,0,1,75.6,102.13a161,161,0,0,1,250-67.26,68,68,0,0,1,110.52,77.05,93,93,0,0,1,55.4,83.36C492.42,246.57,451,289.32,399.75,290Z"/></g></g></svg>