<svg xmlns="http://www.w3.org/2000/svg" viewBox="0 0 491.49 448.59"><defs><style>.cls-1{fill:#5bcad6;}.cls-2{fill:#fff;}</style></defs><g id="Layer_2" data-name="Layer 2"><g id="Layer_1-2" data-name="Layer 1"><circle class="cls-1" cx="329.75" cy="350.65" r="7"/><path class="cls-1" d="M399.75,290a94.79,94.79,0,0,1-11.74-.58s-5,26.09-31,37.09c-1.5,1.5-5.81-17.82-54.3-24.19-12.4-1.63-27.68-2.41-46.55-1.78q-8.56.29-18.15,1c-16.88,1.41-30.22,1.42-40.71.44-13.08-1.22-31.93-4.36-35.68-19.48-2.79-11.23,5.84-23.09,14.53-29.36,1.49-1.08,17.45-8.63,17.86-6.6-.74-3.69-1.52-7.06-2.38-10.2a95.75,95.75,0,0,0-11.3-25.84c-5.34-8.8-12.07-16.86-17.44-25.57-1-1.56-1.9-3.15-2.76-4.76A65.92,65.92,0,0,1,155,168.82a45.29,45.29,0,0,1-1.79-14.1c.34-31.72,15.65-49.07,37.91-60.38s50.53-9.53,71.37,4.22c19.34,12.76,32,36,29.79,59.09-2.27,24-20.82,42.91-32.23,62.85-5.48,9.36-5,10-12,28,23.55-7.22,47.83-15.17,64.56-34.3,15.14-17.31,23.93-39.69,26.81-63.38a80.12,80.12,0,0,0,.29-16.09c-.34-4.17-.84-6.57-1.13-8.81-1.25-7.62-5.11-17.37-10.47-27.08-.58-1,11.9-4.64,13.07-4.79a27,27,0,0,1,13.92,2c9.7,4,17.41,12.25,28,14.08,14.36,2.47,24.73-9.2,27.45-22.3,5.22-25.24-18.43-38.1-40.52-35-14.66,2-28.95,8.17-41,16.66-4.65,3.28-9,6.91-13.6,10.29a102.29,102.29,0,0,0-7.23-8.28,119,119,0,0,0-192.61,31.85c-.06.13-.12.26-.19.39a97.32,97.32,0,0,0-1.65,79.58c.48,1.15,1,2.3,1.53,3.43a119.47,119.47,0,0,0,46.17,51.16l.08,0A76.45,76.45,0,0,0,104,312a75.67,75.67,0,0,0,.78,10.92c-20.59-7.82-36.88-23.27-44.71-42.51-34-13-58.82-45.5-60-83.93A93,93,0,0,1,75.6,102.13a161,161,0,0,1,250-67.26,68,68,0,0,1,110.52,77.05,93,93,0,0,1,55.4,83.36C492.42,246.57,451,289.32,399.75,290Z"/><path class="cls-2" d="M105.26,364.85,97.6,372a58.8,58.8,0,0,0-18.13-12.18,49.24,49.24,0,0,0-19.2-4.15,46.27,46.27,0,0,0-22.16,5.64A41.35,41.35,0,0,0,21.8,376.64,39.19,39.19,0,0,0,16,397.06,39.94,39.94,0,0,0,22,418a42.33,42.33,0,0,0,16.55,15.61,48.12,48.12,0,0,0,23.13,5.67q15.27,0,25.83-8.5a33.41,33.41,0,0,0,12.51-22H68.48v-9.43h42.63Q111,422,97.5,435.28T61.41,448.59Q34,448.59,18,430.13A48.68,48.68,0,0,1,5.66,397.26a50.68,50.68,0,0,1,26.43-44.53A57.07,57.07,0,0,1,59.94,346a62.58,62.58,0,0,1,23.67,4.49A70.62,70.62,0,0,1,105.26,364.85Z"/><path class="cls-2" d="M198.27,422.16l7.93,4.12a42.85,42.85,0,0,1-9,12.22,36,36,0,0,1-11.51,7.07A40.73,40.73,0,0,1,171.2,448q-17.91,0-28-11.59a38.75,38.75,0,0,1-10.1-26.19,38.34,38.34,0,0,1,8.55-24.51q10.83-13.68,29-13.68,18.71,0,29.88,14,8,9.88,8.08,24.7H142.78q.27,12.58,8.15,20.64a26.17,26.17,0,0,0,19.46,8.05,31.6,31.6,0,0,0,10.87-1.92,28.6,28.6,0,0,0,9-5.1Q194,429.25,198.27,422.16Zm0-19.46a30.71,30.71,0,0,0-5.49-11.88,25.83,25.83,0,0,0-9.53-7.17,29.42,29.42,0,0,0-12.46-2.73,27,27,0,0,0-18.51,6.84q-5.67,5-8.56,14.94Z"/><path class="cls-2" d="M234.44,373.88h9.41v12.95a39.27,39.27,0,0,1,12.51-11.12A31,31,0,0,1,271.29,372a26.21,26.21,0,0,1,14.56,4.12,24.64,24.64,0,0,1,9.39,11.09q3,7,3,21.72v37.18h-9.41V411.67q0-12.48-1.05-16.67-1.64-7.17-6.28-10.79t-12.11-3.62a23.4,23.4,0,0,0-15.3,5.58A26,26,0,0,0,245.2,400q-1.35,5.38-1.35,19.66v26.49h-9.41Z"/><path class="cls-2" d="M325.29,373.88h9.41v72.25h-9.41Z"/><path class="cls-2" d="M361.33,373.88h9.41v33.74q0,12.35,1.35,17a19,19,0,0,0,7.71,10.49A23.63,23.63,0,0,0,393.37,439a23.12,23.12,0,0,0,13.37-3.75,19.22,19.22,0,0,0,7.58-9.86q1.41-4.19,1.42-17.73V373.88h9.61v35.46q0,15-3.53,22.52a26.76,26.76,0,0,1-10.62,11.85Q404.09,448,393.41,448t-17.86-4.28a26.56,26.56,0,0,1-10.69-11.95q-3.54-7.68-3.53-23.08Z"/><path class="cls-2" d="M491.32,381.79,485.27,388q-7.56-7.23-14.77-7.24a11.26,11.26,0,0,0-7.86,3,9.17,9.17,0,0,0-3.26,7,10.23,10.23,0,0,0,2.69,6.71q2.7,3.25,11.32,7.64,10.51,5.37,14.29,10.36a18.71,18.71,0,0,1,3.71,11.35,20.23,20.23,0,0,1-6.34,15.08A21.77,21.77,0,0,1,469.23,448a28,28,0,0,1-12.09-2.72,26.17,26.17,0,0,1-9.53-7.5l5.91-6.64q7.22,8,15.31,8a13.83,13.83,0,0,0,9.63-3.59,11,11,0,0,0,4-8.43,10.68,10.68,0,0,0-2.63-7.1Q477.19,417,468,412.33q-9.9-5-13.48-10a18.58,18.58,0,0,1-3.57-11.22,18.15,18.15,0,0,1,5.69-13.68A20,20,0,0,1,471,372Q481.07,372,491.32,381.79Z"/></g></g></svg>