<svg xmlns="http://www.w3.org/2000/svg" viewBox="0 0 1077.41 290.51"><defs><style>.cls-1{fill:#5bcad6;}.cls-2{fill:#303030;}</style></defs><g id="Layer_2" data-name="Layer 2"><g id="Layer_1-2" data-name="Layer 1"><path class="cls-1" d="M324.37,235.31a76.91,76.91,0,0,1-9.53-.47s-4.06,21.17-25.16,30.09c-1.22,1.22-4.72-14.46-44.06-19.63a232.65,232.65,0,0,0-37.77-1.44q-7,.22-14.73.79c-13.7,1.14-24.52,1.15-33,.35-10.62-1-25.91-3.53-29-15.8-2.26-9.12,4.74-18.74,11.79-23.83,1.21-.87,14.15-7,14.49-5.35-.61-3-1.24-5.73-1.94-8.28a77.72,77.72,0,0,0-9.17-21c-4.33-7.14-9.79-13.68-14.15-20.74-.78-1.27-1.54-2.56-2.24-3.87a53,53,0,0,1-4.19-9.17,36.83,36.83,0,0,1-1.45-11.45c.27-25.73,12.7-39.81,30.76-49S196,68.82,213,80c15.69,10.36,25.94,29.23,24.17,48-1.84,19.48-16.89,34.82-26.15,51-4.45,7.6-4.06,8.12-9.74,22.72,19.11-5.86,38.81-12.31,52.39-27.83,12.28-14.05,19.42-32.21,21.75-51.43a64.78,64.78,0,0,0,.24-13.06c-.28-3.38-.68-5.33-.92-7.14-1-6.19-4.14-14.1-8.49-22-.48-.85,9.65-3.77,10.6-3.89a22.08,22.08,0,0,1,11.3,1.59c7.87,3.22,14.13,9.95,22.73,11.43,11.66,2,20.08-7.46,22.28-18.09,4.24-20.48-14.95-30.92-32.88-28.44A77.07,77.07,0,0,0,267,56.32c-3.78,2.66-7.34,5.61-11,8.35A83.05,83.05,0,0,0,250.06,58,96.57,96.57,0,0,0,93.77,83.8a2.2,2.2,0,0,1-.15.31,79,79,0,0,0-1.34,64.58c.39.93.81,1.86,1.24,2.78A97,97,0,0,0,131,193l.06,0a62.14,62.14,0,0,0-46,69c-16.71-6.35-29.93-18.88-36.28-34.5A75.43,75.43,0,0,1,61.34,82.87,130.69,130.69,0,0,1,264.17,28.29a55.19,55.19,0,0,1,89.68,62.53,75.47,75.47,0,0,1-29.48,144.49Z"/><ellipse class="cls-2" cx="866.21" cy="108" rx="7.99" ry="8"/><path class="cls-2" d="M571.47,119l-10.05,9.4a76.59,76.59,0,0,0-23.74-16A64.54,64.54,0,0,0,512.52,107a60.57,60.57,0,0,0-29,7.39,54.1,54.1,0,0,0-21.37,20.06,51.31,51.31,0,0,0-7.58,26.76,52.32,52.32,0,0,0,7.85,27.45,55.38,55.38,0,0,0,21.67,20.45,63,63,0,0,0,30.32,7.44q20,0,33.84-11.14a43.89,43.89,0,0,0,16.39-28.89H523.27V164.15h55.87q-.18,29.67-17.85,47.12T514,228.72q-36,0-56.93-24.19A63.84,63.84,0,0,1,441,161.46a66.4,66.4,0,0,1,34.64-58.34q16.13-8.84,36.48-8.84a82,82,0,0,1,31,5.88Q557.64,106,571.47,119Z"/><path class="cls-2" d="M693.33,194.09l10.4,5.39a56,56,0,0,1-11.82,16,47.17,47.17,0,0,1-15.08,9.27,53.41,53.41,0,0,1-19,3.17q-23.46,0-36.69-15.18t-13.23-34.33a50.17,50.17,0,0,1,11.2-32.1q14.21-17.92,38-17.93,24.51,0,39.16,18.36,10.41,13,10.58,32.37H620.63q.36,16.5,10.68,27a34.26,34.26,0,0,0,25.49,10.55,41.35,41.35,0,0,0,14.25-2.52,37.46,37.46,0,0,0,11.78-6.67Q687.69,203.37,693.33,194.09Zm0-25.5q-2.48-9.74-7.19-15.57a34,34,0,0,0-12.48-9.4,38.66,38.66,0,0,0-16.33-3.57,35.42,35.42,0,0,0-24.26,9q-7.41,6.53-11.21,19.58Z"/><path class="cls-2" d="M740.73,130.83h12.34v17a51.21,51.21,0,0,1,16.39-14.58A40.66,40.66,0,0,1,789,128.39a34.28,34.28,0,0,1,19.08,5.4,32.19,32.19,0,0,1,12.29,14.53q4,9.13,4,28.45V225.5H812V180.34q0-16.36-1.37-21.84-2.14-9.41-8.23-14.14t-15.86-4.74a30.6,30.6,0,0,0-20,7.31A34.15,34.15,0,0,0,754.83,165q-1.77,7-1.76,25.76V225.5H740.73Z"/><path class="cls-2" d="M859.77,130.83h12.34V225.5H859.77Z"/><path class="cls-2" d="M907,130.83h12.34V175q0,16.18,1.76,22.28a24.86,24.86,0,0,0,10.11,13.74,30.92,30.92,0,0,0,17.78,5q10.32,0,17.52-4.92a25.2,25.2,0,0,0,9.93-12.92q1.85-5.47,1.85-23.23v-44.2h12.6v46.46q0,19.58-4.62,29.5a35.08,35.08,0,0,1-13.93,15.53q-9.3,5.61-23.3,5.61t-23.4-5.61a34.7,34.7,0,0,1-14-15.66q-4.64-10-4.63-30.24Z"/><path class="cls-2" d="M1077.32,141.18l-7.93,8.09q-9.9-9.48-19.35-9.48a14.7,14.7,0,0,0-10.29,3.92,12,12,0,0,0-4.29,9.13,13.45,13.45,0,0,0,3.53,8.79q3.54,4.26,14.84,10,13.77,7.05,18.72,13.57a24.51,24.51,0,0,1,4.86,14.88,26.54,26.54,0,0,1-8.3,19.75q-8.29,8.1-20.74,8.09a36.73,36.73,0,0,1-15.84-3.56,34.38,34.38,0,0,1-12.49-9.84l7.75-8.7q9.46,10.53,20,10.53a18.23,18.23,0,0,0,12.64-4.7,14.44,14.44,0,0,0,5.21-11,14,14,0,0,0-3.45-9.31q-3.43-4-15.54-10.09-13-6.61-17.66-13.05a24.41,24.41,0,0,1-4.68-14.71,23.72,23.72,0,0,1,7.46-17.92q7.46-7.14,18.84-7.14Q1063.91,128.39,1077.32,141.18Z"/><circle class="cls-1" cx="255.87" cy="281.33" r="9.17"/></g></g></svg>